<svg width="424" height="183" viewBox="0 0 424 183" fill="none" xmlns="http://www.w3.org/2000/svg">
<g id="Vector" filter="url(#filter0_d_156_19)">
<path d="M7.40649 1C5.87982 1 4.91072 2.63992 5.64603 3.97783C10.0313 11.9569 21.8115 33.7051 24 41C26.1687 48.2289 38.4016 137.391 43.1323 172.204C43.4436 174.495 46.7492 174.471 47.0961 172.185L66.972 41.1845C66.9906 41.0618 67.0206 40.941 67.0617 40.8238L80.0688 3.6607C80.5239 2.36035 79.5587 1 78.181 1H7.40649Z" fill="#EFEFEF"/>
<path d="M142.406 1C140.88 1 139.911 2.63992 140.646 3.97783C145.031 11.9569 156.812 33.7051 159 41C161.169 48.2289 173.402 137.391 178.132 172.204C178.444 174.495 181.749 174.471 182.096 172.185L201.972 41.1845C201.991 41.0618 202.021 40.941 202.062 40.8238L215.069 3.6607C215.524 2.36035 214.559 1 213.181 1H142.406Z" fill="#EFEFEF"/>
<path d="M88.4229 41C86.8925 41 85.9225 42.6478 86.6617 43.9878C90.2594 50.5094 98.6359 65.9952 101 73C103.164 79.4117 109.826 113.738 113.479 132.951C113.907 135.206 117.306 135.098 117.612 132.823C119.626 117.866 123.327 92.9565 128 73C130.254 63.3737 135.563 49.59 137.882 43.7657C138.41 42.4417 137.433 41 136.007 41H88.4229Z" fill="#EFEFEF"/>
<path fill-rule="evenodd" clip-rule="evenodd" d="M7.40648 1.5C6.26042 1.5 5.53186 2.73199 6.08421 3.73701C8.27774 7.72818 12.3218 15.1648 16.0917 22.5174C19.852 29.8509 23.3688 37.1559 24.4789 40.8563C24.7606 41.7952 25.1939 44.0127 25.7434 47.2004C26.2955 50.4026 26.9702 54.6179 27.7333 59.5788C29.2594 69.5011 31.14 82.4142 33.1004 96.1877C37.0213 123.735 41.2624 154.73 43.6277 172.137C43.7443 172.994 44.3991 173.415 45.0979 173.411C45.7994 173.407 46.4708 172.973 46.6017 172.11L66.4777 41.1095C66.5009 40.9561 66.5385 40.8051 66.5897 40.6587L79.5968 3.49552C79.9382 2.52026 79.2143 1.5 78.181 1.5H7.40648ZM5.20784 4.21866C4.28957 2.54784 5.49922 0.5 7.40648 0.5H78.181C79.9032 0.5 81.1096 2.20044 80.5407 3.82587L67.5336 40.989C67.5028 41.0769 67.4803 41.1675 67.4663 41.2595L47.5904 172.26C47.3746 173.683 46.2197 174.404 45.1039 174.411C43.9852 174.418 42.8316 173.705 42.6368 172.271C40.2715 154.865 36.0308 123.873 32.1104 96.3286C30.1501 82.5563 28.2702 69.6475 26.7449 59.7308C25.9822 54.7722 25.3085 50.5637 24.758 47.3702C24.2049 44.1621 23.7816 42.012 23.5211 41.1437C22.4428 37.5492 18.9752 30.3326 15.2019 22.9736C11.4383 15.6336 7.39956 8.20653 5.20784 4.21866ZM142.406 1.5C141.26 1.5 140.532 2.73199 141.084 3.73701C143.278 7.72818 147.322 15.1648 151.092 22.5174C154.852 29.8509 158.369 37.1559 159.479 40.8563C159.761 41.7952 160.194 44.0127 160.743 47.2004C161.295 50.4026 161.97 54.6179 162.733 59.5788C164.259 69.5011 166.14 82.4142 168.1 96.1877C172.021 123.735 176.262 154.73 178.628 172.137C178.744 172.994 179.399 173.415 180.098 173.411C180.799 173.407 181.471 172.973 181.602 172.11L201.478 41.1095C201.501 40.9561 201.538 40.8051 201.59 40.6587L214.597 3.49552C214.938 2.52026 214.214 1.5 213.181 1.5H142.406ZM140.208 4.21866C139.29 2.54784 140.499 0.5 142.406 0.5H213.181C214.903 0.5 216.11 2.20044 215.541 3.82587L202.534 40.989C202.503 41.0769 202.48 41.1675 202.466 41.2595L182.59 172.26C182.375 173.683 181.22 174.404 180.104 174.411C178.985 174.418 177.832 173.705 177.637 172.271C175.272 154.865 171.031 123.873 167.11 96.3286C165.15 82.5563 163.27 69.6475 161.745 59.7308C160.982 54.7722 160.309 50.5637 159.758 47.3702C159.205 44.1621 158.782 42.012 158.521 41.1437C157.443 37.5492 153.975 30.3326 150.202 22.9736C146.438 15.6336 142.4 8.20653 140.208 4.21866ZM88.4229 41.5C87.2743 41.5 86.5436 42.7385 87.0995 43.7463C88.8995 47.0093 91.896 52.5163 94.7388 58.0854C97.5763 63.6441 100.278 69.2979 101.474 72.8401C102.568 76.0837 104.782 86.3086 107.171 98.0753C109.564 109.863 112.143 123.25 113.97 132.857C114.129 133.693 114.826 134.109 115.576 134.086C116.326 134.062 117.003 133.602 117.117 132.756C119.131 117.797 122.834 92.8673 127.513 72.886C129.777 63.2181 135.1 49.4013 137.418 43.5807C137.814 42.5848 137.079 41.5 136.007 41.5H88.4229ZM86.2239 44.2293C85.3015 42.5571 86.5108 40.5 88.4229 40.5H136.007C137.786 40.5 139.005 42.2986 138.347 43.9507C136.026 49.7787 130.731 63.5293 128.487 73.114C123.82 93.0458 120.121 117.935 118.108 132.89C117.915 134.319 116.739 135.05 115.607 135.085C114.474 135.121 113.257 134.463 112.987 133.044C111.161 123.438 108.583 110.056 106.191 98.2743C103.795 86.4719 101.595 76.328 100.526 73.1599C99.3576 69.6973 96.6892 64.1058 93.8481 58.54C91.0122 52.9846 88.0216 47.488 86.2239 44.2293Z" fill="#EFEFEF"/>
<path d="M254.406 1C252.88 1 251.911 2.63992 252.646 3.97783C257.031 11.9569 268.812 33.7051 271 41C273.169 48.2289 285.402 137.391 290.132 172.204C290.444 174.495 293.749 174.471 294.096 172.185L313.972 41.1845C313.991 41.0618 314.021 40.941 314.062 40.8238L327.069 3.6607C327.524 2.36035 326.559 1 325.181 1H254.406Z" fill="#EFEFEF"/>
<path d="M340.039 88.9946C340.555 90.4355 342.433 90.7937 343.446 89.6463C348.374 84.0618 360.133 70.9579 365.931 66.3721C371.239 62.1745 401.314 44.3378 418.173 34.4256C420.152 33.2622 418.906 30.0988 416.66 30.5768C401.9 33.7195 377.199 38.627 356.835 40.9504C347.012 42.0712 332.246 41.7167 325.981 41.4948C324.556 41.4443 323.528 42.8499 324.008 44.1918L340.039 88.9946Z" fill="#EFEFEF"/>
<path d="M317.642 140.381C316.908 141.724 317.888 143.366 319.419 143.36C326.867 143.33 344.473 143.407 351.753 144.691C358.417 145.868 391.733 156.484 410.344 162.493C412.529 163.198 414.064 160.164 412.215 158.804C400.056 149.864 379.973 134.67 364.702 120.999C357.336 114.404 347.786 103.136 343.788 98.3072C342.879 97.2094 341.146 97.3753 340.462 98.6259L317.642 140.381Z" fill="#EFEFEF"/>
</g>
<defs>
<filter id="filter0_d_156_19" x="0.89444" y="0.5" width="422.267" height="181.911" filterUnits="userSpaceOnUse" color-interpolation-filters="sRGB">
<feFlood flood-opacity="0" result="BackgroundImageFix"/>
<feColorMatrix in="SourceAlpha" type="matrix" values="0 0 0 0 0 0 0 0 0 0 0 0 0 0 0 0 0 0 127 0" result="hardAlpha"/>
<feOffset dy="4"/>
<feGaussianBlur stdDeviation="2"/>
<feComposite in2="hardAlpha" operator="out"/>
<feColorMatrix type="matrix" values="0 0 0 0 0 0 0 0 0 0 0 0 0 0 0 0 0 0 0.25 0"/>
<feBlend mode="normal" in2="BackgroundImageFix" result="effect1_dropShadow_156_19"/>
<feBlend mode="normal" in="SourceGraphic" in2="effect1_dropShadow_156_19" result="shape"/>
</filter>
</defs>
</svg>
